<?xml version="1.0" encoding="UTF-8" standalone="no"?>
<!DOCTYPE svg PUBLIC "-//W3C//DTD SVG 1.1//EN"
 "http://www.w3.org/Graphics/SVG/1.1/DTD/svg11.dtd">
<!-- Generated by graphviz version 2.43.0 (0)
 -->
<!-- Title: RubberStampLoop Pages: 1 -->
<svg width="579pt" height="509pt"
 viewBox="0.00 0.00 579.00 509.00" xmlns="http://www.w3.org/2000/svg" xmlns:xlink="http://www.w3.org/1999/xlink">
<g id="graph0" class="graph" transform="scale(1 1) rotate(0) translate(4 505)">
<title>RubberStampLoop</title>
<polygon fill="#0a0e12" stroke="transparent" points="-4,4 -4,-505 575,-505 575,4 -4,4"/>
<text text-anchor="middle" x="285.5" y="-481" font-family="Helvetica,sans-Serif" font-size="20.00" fill="#dfe6ee">sec_audit_verified.md: citing itself as independent proof</text>
<!-- rule -->
<g id="node1" class="node">
<title>rule</title>
<polygon fill="#0f2a20" stroke="#39ffb0" stroke-width="1.5" points="451.75,-471 199.75,-471 199.75,-403 451.75,-403 451.75,-471"/>
<text text-anchor="middle" x="325.75" y="-455.8" font-family="Helvetica,sans-Serif" font-size="14.00" fill="#dfe6ee">Own stated rule</text>
<text text-anchor="middle" x="325.75" y="-440.8" font-family="Helvetica,sans-Serif" font-size="14.00" fill="#dfe6ee">(Anti&#45;Pattern #2):</text>
<text text-anchor="middle" x="325.75" y="-425.8" font-family="Helvetica,sans-Serif" font-size="14.00" fill="#dfe6ee">&quot;a handoff summary is not</text>
<text text-anchor="middle" x="325.75" y="-410.8" font-family="Helvetica,sans-Serif" font-size="14.00" fill="#dfe6ee">evidence — verify independently&quot;</text>
</g>
<!-- original -->
<g id="node2" class="node">
<title>original</title>
<polygon fill="#1a1f26" stroke="#556070" stroke-width="1.5" points="338.25,-352 129.25,-352 129.25,-299 338.25,-299 338.25,-352"/>
<text text-anchor="middle" x="233.75" y="-336.8" font-family="Helvetica,sans-Serif" font-size="14.00" fill="#dfe6ee">Original audit:</text>
<text text-anchor="middle" x="233.75" y="-321.8" font-family="Helvetica,sans-Serif" font-size="14.00" fill="#dfe6ee">network listeners empty</text>
<text text-anchor="middle" x="233.75" y="-306.8" font-family="Helvetica,sans-Serif" font-size="14.00" fill="#dfe6ee">(unverified firewall/mounts)</text>
</g>
<!-- rule&#45;&gt;original -->
<g id="edge1" class="edge">
<title>rule&#45;&gt;original</title>
<path fill="none" stroke="#39ffb0" stroke-dasharray="5,2" d="M287.47,-402.94C281.61,-397.2 275.83,-391.11 270.75,-385 264.6,-377.6 258.68,-369.11 253.44,-360.93"/>
<polygon fill="#39ffb0" stroke="#39ffb0" points="256.3,-358.9 248.06,-352.25 250.36,-362.59 256.3,-358.9"/>
<text text-anchor="middle" x="324.75" y="-373.8" font-family="Helvetica,sans-Serif" font-size="14.00" fill="#ffa93a">should apply to</text>
</g>
<!-- violates -->
<g id="node5" class="node">
<title>violates</title>
<polygon fill="#3a2a08" stroke="#ffa93a" stroke-width="2.5" points="396.25,-68 241.25,-68 241.25,0 396.25,0 396.25,-68"/>
<text text-anchor="middle" x="318.75" y="-52.8" font-family="Helvetica,sans-Serif" font-size="14.00" fill="#fff3da">Violates its own</text>
<text text-anchor="middle" x="318.75" y="-37.8" font-family="Helvetica,sans-Serif" font-size="14.00" fill="#fff3da">Anti&#45;Pattern #2,</text>
<text text-anchor="middle" x="318.75" y="-22.8" font-family="Helvetica,sans-Serif" font-size="14.00" fill="#fff3da">in the same session</text>
<text text-anchor="middle" x="318.75" y="-7.8" font-family="Helvetica,sans-Serif" font-size="14.00" fill="#fff3da">that wrote it</text>
</g>
<!-- rule&#45;&gt;violates -->
<g id="edge5" class="edge">
<title>rule&#45;&gt;violates</title>
<path fill="none" stroke="#ff4d4d" stroke-dasharray="5,2" d="M365.48,-402.91C370.5,-397.35 375.13,-391.32 378.75,-385 392.03,-361.8 392.75,-353.23 392.75,-326.5 392.75,-326.5 392.75,-326.5 392.75,-130.5 392.75,-109.96 381.92,-91.16 368.55,-75.77"/>
<polygon fill="#ff4d4d" stroke="#ff4d4d" points="370.74,-72.99 361.37,-68.05 365.61,-77.75 370.74,-72.99"/>
</g>
<!-- verified_doc -->
<g id="node3" class="node">
<title>verified_doc</title>
<polygon fill="#4a0808" stroke="#ff4d4d" stroke-width="1.5" points="316.25,-248 119.25,-248 119.25,-195 316.25,-195 316.25,-248"/>
<text text-anchor="middle" x="217.75" y="-232.8" font-family="Helvetica,sans-Serif" font-size="14.00" fill="#fff0f0">sec_audit_verified.md:</text>
<text text-anchor="middle" x="217.75" y="-217.8" font-family="Helvetica,sans-Serif" font-size="14.00" fill="#fff0f0">re&#45;states the SAME claims</text>
<text text-anchor="middle" x="217.75" y="-202.8" font-family="Helvetica,sans-Serif" font-size="14.00" fill="#fff0f0">as &quot;proof&quot;</text>
</g>
<!-- original&#45;&gt;verified_doc -->
<g id="edge2" class="edge">
<title>original&#45;&gt;verified_doc</title>
<path fill="none" stroke="#556070" d="M215.38,-298.85C212.23,-293.22 209.44,-287.11 207.75,-281 205.73,-273.69 205.7,-265.76 206.68,-258.15"/>
<polygon fill="#556070" stroke="#556070" points="210.16,-258.55 208.55,-248.08 203.28,-257.28 210.16,-258.55"/>
<text text-anchor="middle" x="293.25" y="-269.8" font-family="Helvetica,sans-Serif" font-size="14.00" fill="#ffa93a">&quot;independently verified&quot;</text>
</g>
<!-- conclusion -->
<g id="node4" class="node">
<title>conclusion</title>
<polygon fill="#4a0808" stroke="#ff4d4d" stroke-width="2.5" points="359.75,-158 131.75,-158 131.75,-105 359.75,-105 359.75,-158"/>
<text text-anchor="middle" x="245.75" y="-142.8" font-family="Helvetica,sans-Serif" font-size="14.00" fill="#fff0f0">&quot;The security report was</text>
<text text-anchor="middle" x="245.75" y="-127.8" font-family="Helvetica,sans-Serif" font-size="14.00" fill="#fff0f0">accurate&quot; — no new evidence,</text>
<text text-anchor="middle" x="245.75" y="-112.8" font-family="Helvetica,sans-Serif" font-size="14.00" fill="#fff0f0">just restated assertion</text>
</g>
<!-- verified_doc&#45;&gt;conclusion -->
<g id="edge3" class="edge">
<title>verified_doc&#45;&gt;conclusion</title>
<path fill="none" stroke="#556070" d="M226,-194.57C228.65,-186.25 231.63,-176.88 234.46,-167.99"/>
<polygon fill="#556070" stroke="#556070" points="237.86,-168.83 237.56,-158.24 231.19,-166.71 237.86,-168.83"/>
</g>
<!-- conclusion&#45;&gt;violates -->
<g id="edge4" class="edge">
<title>conclusion&#45;&gt;violates</title>
<path fill="none" stroke="#556070" d="M265.31,-104.91C272.04,-96.1 279.76,-86 287.2,-76.27"/>
<polygon fill="#556070" stroke="#556070" points="290.06,-78.29 293.36,-68.22 284.5,-74.04 290.06,-78.29"/>
</g>
</g>
</svg>
