<?xml version="1.0" encoding="UTF-8" standalone="no"?>
<!DOCTYPE svg PUBLIC "-//W3C//DTD SVG 1.1//EN"
 "http://www.w3.org/Graphics/SVG/1.1/DTD/svg11.dtd">
<!-- Generated by graphviz version 2.43.0 (0)
 -->
<!-- Title: ClaimVsEvidence Pages: 1 -->
<svg width="574pt" height="566pt"
 viewBox="0.00 0.00 574.00 566.00" xmlns="http://www.w3.org/2000/svg" xmlns:xlink="http://www.w3.org/1999/xlink">
<g id="graph0" class="graph" transform="scale(1 1) rotate(0) translate(4 562)">
<title>ClaimVsEvidence</title>
<polygon fill="#0a0e12" stroke="transparent" points="-4,4 -4,-562 570,-562 570,4 -4,4"/>
<text text-anchor="middle" x="283" y="-538" font-family="Helvetica,sans-Serif" font-size="20.00" fill="#dfe6ee">The audit&#39;s claim vs. what evidence actually supports it</text>
<g id="clust1" class="cluster">
<title>cluster_checked</title>
<polygon fill="#0d1620" stroke="#39d0ff" points="27,-324 27,-520 212,-520 212,-324 27,-324"/>
<text text-anchor="middle" x="119.5" y="-500" font-family="Helvetica,sans-Serif" font-size="20.00" fill="#dfe6ee">Actually checked</text>
</g>
<g id="clust2" class="cluster">
<title>cluster_unchecked</title>
<polygon fill="#150d0d" stroke="#ff4d4d" points="37.5,-8 37.5,-316 201.5,-316 201.5,-8 37.5,-8"/>
<text text-anchor="middle" x="119.5" y="-296" font-family="Helvetica,sans-Serif" font-size="20.00" fill="#fff0f0">Never checked</text>
</g>
<!-- tcp -->
<g id="node1" class="node">
<title>tcp</title>
<polygon fill="#0f2a20" stroke="#39ffb0" stroke-width="1.5" points="191,-482 47,-482 47,-444 191,-444 191,-482"/>
<text text-anchor="middle" x="119" y="-466.8" font-family="Helvetica,sans-Serif" font-size="14.00" fill="#dfe6ee">/proc/net/tcp, tcp6</text>
<text text-anchor="middle" x="119" y="-451.8" font-family="Helvetica,sans-Serif" font-size="14.00" fill="#dfe6ee">(empty)</text>
</g>
<!-- verdict -->
<g id="node9" class="node">
<title>verdict</title>
<polygon fill="#3a2a08" stroke="#ffa93a" stroke-width="2.5" points="539,-256.5 336,-256.5 336,-203.5 539,-203.5 539,-256.5"/>
<text text-anchor="middle" x="437.5" y="-241.3" font-family="Helvetica,sans-Serif" font-size="14.00" fill="#fff3da">Reported verdict:</text>
<text text-anchor="middle" x="437.5" y="-226.3" font-family="Helvetica,sans-Serif" font-size="14.00" fill="#fff3da">&quot;CLEAN — zero exploitable</text>
<text text-anchor="middle" x="437.5" y="-211.3" font-family="Helvetica,sans-Serif" font-size="14.00" fill="#fff3da">attack surface&quot;</text>
</g>
<!-- tcp&#45;&gt;verdict -->
<g id="edge1" class="edge">
<title>tcp&#45;&gt;verdict</title>
<path fill="none" stroke="#556070" d="M191.21,-443.85C198.36,-441.18 205.4,-438.23 212,-435 295.83,-393.92 371,-311.74 409.45,-264.87"/>
<polygon fill="#556070" stroke="#556070" points="412.39,-266.8 415.97,-256.82 406.95,-262.39 412.39,-266.8"/>
</g>
<!-- unix -->
<g id="node2" class="node">
<title>unix</title>
<polygon fill="#0f2a20" stroke="#39ffb0" stroke-width="1.5" points="194,-426 44,-426 44,-388 194,-388 194,-426"/>
<text text-anchor="middle" x="119" y="-410.8" font-family="Helvetica,sans-Serif" font-size="14.00" fill="#dfe6ee">/proc/net/unix</text>
<text text-anchor="middle" x="119" y="-395.8" font-family="Helvetica,sans-Serif" font-size="14.00" fill="#dfe6ee">(empty/ephemeral)</text>
</g>
<!-- unix&#45;&gt;verdict -->
<g id="edge2" class="edge">
<title>unix&#45;&gt;verdict</title>
<path fill="none" stroke="#556070" d="M190.08,-387.89C197.59,-385.19 205.03,-382.22 212,-379 280.61,-347.29 352.05,-296.25 395.41,-262.91"/>
<polygon fill="#556070" stroke="#556070" points="397.68,-265.59 403.44,-256.7 393.39,-260.05 397.68,-265.59"/>
</g>
<!-- procs -->
<g id="node3" class="node">
<title>procs</title>
<polygon fill="#0f2a20" stroke="#39ffb0" stroke-width="1.5" points="191.5,-370 46.5,-370 46.5,-332 191.5,-332 191.5,-370"/>
<text text-anchor="middle" x="119" y="-354.8" font-family="Helvetica,sans-Serif" font-size="14.00" fill="#dfe6ee">process list</text>
<text text-anchor="middle" x="119" y="-339.8" font-family="Helvetica,sans-Serif" font-size="14.00" fill="#dfe6ee">(docker&#45;init, sleep)</text>
</g>
<!-- procs&#45;&gt;verdict -->
<g id="edge3" class="edge">
<title>procs&#45;&gt;verdict</title>
<path fill="none" stroke="#556070" d="M178.08,-331.98C189.37,-328.13 201.09,-324.02 212,-320 263.02,-301.19 319.87,-278.38 363.6,-260.43"/>
<polygon fill="#556070" stroke="#556070" points="365.09,-263.61 373,-256.56 362.42,-257.13 365.09,-263.61"/>
</g>
<!-- caps -->
<g id="node4" class="node">
<title>caps</title>
<polygon fill="#4a0808" stroke="#ff4d4d" stroke-width="1.5" points="183.5,-278 54.5,-278 54.5,-240 183.5,-240 183.5,-278"/>
<text text-anchor="middle" x="119" y="-262.8" font-family="Helvetica,sans-Serif" font-size="14.00" fill="#dfe6ee">capabilities /</text>
<text text-anchor="middle" x="119" y="-247.8" font-family="Helvetica,sans-Serif" font-size="14.00" fill="#dfe6ee">privileged mode</text>
</g>
<!-- caps&#45;&gt;verdict -->
<g id="edge4" class="edge">
<title>caps&#45;&gt;verdict</title>
<path fill="none" stroke="#ff4d4d" stroke-dasharray="5,2" d="M183.67,-253.17C224.37,-249.44 278.25,-244.5 325.81,-240.14"/>
<polygon fill="#ff4d4d" stroke="#ff4d4d" points="326.22,-243.62 335.86,-239.22 325.58,-236.65 326.22,-243.62"/>
<text text-anchor="middle" x="270" y="-252.8" font-family="Helvetica,sans-Serif" font-size="14.00" fill="#ffa93a">not evaluated</text>
</g>
<!-- mounts -->
<g id="node5" class="node">
<title>mounts</title>
<polygon fill="#4a0808" stroke="#ff4d4d" stroke-width="1.5" points="177,-222 61,-222 61,-184 177,-184 177,-222"/>
<text text-anchor="middle" x="119" y="-206.8" font-family="Helvetica,sans-Serif" font-size="14.00" fill="#dfe6ee">bind mounts</text>
<text text-anchor="middle" x="119" y="-191.8" font-family="Helvetica,sans-Serif" font-size="14.00" fill="#dfe6ee">(docker.sock?)</text>
</g>
<!-- mounts&#45;&gt;verdict -->
<g id="edge5" class="edge">
<title>mounts&#45;&gt;verdict</title>
<path fill="none" stroke="#ff4d4d" stroke-dasharray="5,2" d="M177.23,-206.46C216.8,-208.99 270.64,-212.73 318,-217 320.57,-217.23 323.17,-217.47 325.79,-217.72"/>
<polygon fill="#ff4d4d" stroke="#ff4d4d" points="325.71,-221.23 336,-218.7 326.38,-214.26 325.71,-221.23"/>
<text text-anchor="middle" x="270" y="-220.8" font-family="Helvetica,sans-Serif" font-size="14.00" fill="#ffa93a">not evaluated</text>
</g>
<!-- user -->
<g id="node6" class="node">
<title>user</title>
<polygon fill="#4a0808" stroke="#ff4d4d" stroke-width="1.5" points="169.5,-166 68.5,-166 68.5,-128 169.5,-128 169.5,-166"/>
<text text-anchor="middle" x="119" y="-150.8" font-family="Helvetica,sans-Serif" font-size="14.00" fill="#dfe6ee">running UID</text>
<text text-anchor="middle" x="119" y="-135.8" font-family="Helvetica,sans-Serif" font-size="14.00" fill="#dfe6ee">(root?)</text>
</g>
<!-- user&#45;&gt;verdict -->
<g id="edge6" class="edge">
<title>user&#45;&gt;verdict</title>
<path fill="none" stroke="#ff4d4d" stroke-dasharray="5,2" d="M169.6,-156.18C209.88,-164.01 267.99,-176.18 318,-190 329.2,-193.1 340.9,-196.65 352.39,-200.32"/>
<polygon fill="#ff4d4d" stroke="#ff4d4d" points="351.39,-203.68 361.98,-203.44 353.55,-197.02 351.39,-203.68"/>
<text text-anchor="middle" x="270" y="-193.8" font-family="Helvetica,sans-Serif" font-size="14.00" fill="#ffa93a">not evaluated</text>
</g>
<!-- secc -->
<g id="node7" class="node">
<title>secc</title>
<polygon fill="#4a0808" stroke="#ff4d4d" stroke-width="1.5" points="186.5,-110 51.5,-110 51.5,-72 186.5,-72 186.5,-110"/>
<text text-anchor="middle" x="119" y="-94.8" font-family="Helvetica,sans-Serif" font-size="14.00" fill="#dfe6ee">seccomp /</text>
<text text-anchor="middle" x="119" y="-79.8" font-family="Helvetica,sans-Serif" font-size="14.00" fill="#dfe6ee">AppArmor profile</text>
</g>
<!-- secc&#45;&gt;verdict -->
<g id="edge7" class="edge">
<title>secc&#45;&gt;verdict</title>
<path fill="none" stroke="#ff4d4d" stroke-dasharray="5,2" d="M186.6,-104.46C225.97,-113.8 276.14,-128.15 318,-148 345.66,-161.12 373.95,-180.43 395.95,-197.02"/>
<polygon fill="#ff4d4d" stroke="#ff4d4d" points="393.99,-199.93 404.06,-203.22 398.25,-194.37 393.99,-199.93"/>
<text text-anchor="middle" x="270" y="-151.8" font-family="Helvetica,sans-Serif" font-size="14.00" fill="#ffa93a">not evaluated</text>
</g>
<!-- secrets -->
<g id="node8" class="node">
<title>secrets</title>
<polygon fill="#4a0808" stroke="#ff4d4d" stroke-width="1.5" points="160.5,-54 77.5,-54 77.5,-16 160.5,-16 160.5,-54"/>
<text text-anchor="middle" x="119" y="-38.8" font-family="Helvetica,sans-Serif" font-size="14.00" fill="#dfe6ee">secrets in</text>
<text text-anchor="middle" x="119" y="-23.8" font-family="Helvetica,sans-Serif" font-size="14.00" fill="#dfe6ee">env vars</text>
</g>
<!-- secrets&#45;&gt;verdict -->
<g id="edge8" class="edge">
<title>secrets&#45;&gt;verdict</title>
<path fill="none" stroke="#ff4d4d" stroke-dasharray="5,2" d="M160.72,-40.3C202.83,-47.28 269.14,-62.55 318,-94 358.68,-120.18 393.41,-164.29 414.57,-195.15"/>
<polygon fill="#ff4d4d" stroke="#ff4d4d" points="411.68,-197.13 420.16,-203.48 417.49,-193.23 411.68,-197.13"/>
<text text-anchor="middle" x="270" y="-97.8" font-family="Helvetica,sans-Serif" font-size="14.00" fill="#ffa93a">not evaluated</text>
</g>
</g>
</svg>
